# xmcd
# Track frame offsets:
# 150
# 15850
# 35557
# 46250
# 61072
# 76567
# 94842
# 113335
# 130995
# 142585
# 156482
# 176760
#
# Disc length: 2630 seconds
# Revision: 0
# Processed by: cddbd v1.4PL0 Copyright (c) Steve Scherf et al.
# Submitted via: VisiTrax 2.9.5.181 - For more info visit www.synapsa.com
#
DISCID=840a440c
DTITLE=Tiger City Jukes - Ride In Style
DYEAR=1999
DGENRE=Blues
TTITLE0=Backseat Love Affair
TTITLE1=Denise
TTITLE2=Never Too Fat To Mambo
TTITLE3=Someday
TTITLE4=Natch`l Ball
TTITLE5=Escape
TTITLE6=Traffic Jam Sam
TTITLE7=Memory Man
TTITLE8=You Keep On Knocking
TTITLE9=Red Tail Lights
TTITLE10=Backdoor Woman
TTITLE11=Chills
EXTD=
EXTT0=
EXTT1=
EXTT2=
EXTT3=
EXTT4=
EXTT5=
EXTT6=
EXTT7=
EXTT8=
EXTT9=
EXTT10=
EXTT11=
PLAYORDER=
